<svg id="visual" viewBox="0 0 900 600" width="900" height="600" xmlns="http://www.w3.org/2000/svg" xmlns:xlink="http://www.w3.org/1999/xlink" version="1.1"><g stroke-width="1" stroke-linejoin="bevel"><path d="M395 332L381 372L486 379Z" fill="#112e42" stroke="#112e42"></path><path d="M486 379L526 330L395 332Z" fill="#0c2435" stroke="#0c2435"></path><path d="M381 372L414 482L486 379Z" fill="#205a7a" stroke="#205a7a"></path><path d="M486 379L563 439L526 330Z" fill="#0c2435" stroke="#0c2435"></path><path d="M395 332L299 377L381 372Z" fill="#0c2435" stroke="#0c2435"></path><path d="M381 372L299 377L414 482Z" fill="#15384f" stroke="#15384f"></path><path d="M469 512L563 439L486 379Z" fill="#205a7a" stroke="#205a7a"></path><path d="M414 482L469 512L486 379Z" fill="#205a7a" stroke="#205a7a"></path><path d="M501 163L364 212L395 332Z" fill="#1d4e6b" stroke="#1d4e6b"></path><path d="M395 332L286 264L299 377Z" fill="#00101c" stroke="#00101c"></path><path d="M364 212L329 227L395 332Z" fill="#15384f" stroke="#15384f"></path><path d="M329 227L286 264L395 332Z" fill="#081a28" stroke="#081a28"></path><path d="M715 364L603 262L526 330Z" fill="#112e42" stroke="#112e42"></path><path d="M526 330L501 163L395 332Z" fill="#246688" stroke="#246688"></path><path d="M603 262L586 233L526 330Z" fill="#205a7a" stroke="#205a7a"></path><path d="M299 377L285 514L414 482Z" fill="#246688" stroke="#246688"></path><path d="M414 482L439 600L469 512Z" fill="#277297" stroke="#277297"></path><path d="M220 394L285 514L299 377Z" fill="#1d4e6b" stroke="#1d4e6b"></path><path d="M286 264L220 394L299 377Z" fill="#205a7a" stroke="#205a7a"></path><path d="M586 233L501 163L526 330Z" fill="#297ea6" stroke="#297ea6"></path><path d="M336 600L439 600L414 482Z" fill="#0c2435" stroke="#0c2435"></path><path d="M534 600L637 488L563 439Z" fill="#1d4e6b" stroke="#1d4e6b"></path><path d="M534 600L563 439L469 512Z" fill="#00101c" stroke="#00101c"></path><path d="M563 439L715 364L526 330Z" fill="#00101c" stroke="#00101c"></path><path d="M285 514L336 600L414 482Z" fill="#246688" stroke="#246688"></path><path d="M439 600L534 600L469 512Z" fill="#246688" stroke="#246688"></path><path d="M220 394L229 516L285 514Z" fill="#0c2435" stroke="#0c2435"></path><path d="M285 514L229 516L336 600Z" fill="#15384f" stroke="#15384f"></path><path d="M364 212L309 137L329 227Z" fill="#1d4e6b" stroke="#1d4e6b"></path><path d="M329 227L223 209L286 264Z" fill="#297ea6" stroke="#297ea6"></path><path d="M286 264L168 320L220 394Z" fill="#0c2435" stroke="#0c2435"></path><path d="M423 74L309 137L364 212Z" fill="#246688" stroke="#246688"></path><path d="M309 137L223 209L329 227Z" fill="#00101c" stroke="#00101c"></path><path d="M223 209L168 320L286 264Z" fill="#19435d" stroke="#19435d"></path><path d="M66 470L179 600L229 516Z" fill="#19435d" stroke="#19435d"></path><path d="M637 488L715 364L563 439Z" fill="#15384f" stroke="#15384f"></path><path d="M603 262L739 227L586 233Z" fill="#0c2435" stroke="#0c2435"></path><path d="M715 364L711 319L603 262Z" fill="#1d4e6b" stroke="#1d4e6b"></path><path d="M570 107L521 98L501 163Z" fill="#205a7a" stroke="#205a7a"></path><path d="M737 600L697 474L637 488Z" fill="#081a28" stroke="#081a28"></path><path d="M637 488L697 474L715 364Z" fill="#246688" stroke="#246688"></path><path d="M570 107L501 163L586 233Z" fill="#0c2435" stroke="#0c2435"></path><path d="M501 163L423 74L364 212Z" fill="#112e42" stroke="#112e42"></path><path d="M534 600L613 600L637 488Z" fill="#15384f" stroke="#15384f"></path><path d="M521 98L423 74L501 163Z" fill="#1d4e6b" stroke="#1d4e6b"></path><path d="M676 78L570 107L586 233Z" fill="#0c2435" stroke="#0c2435"></path><path d="M521 98L437 0L423 74Z" fill="#205a7a" stroke="#205a7a"></path><path d="M711 319L739 227L603 262Z" fill="#00101c" stroke="#00101c"></path><path d="M786 267L739 227L711 319Z" fill="#1d4e6b" stroke="#1d4e6b"></path><path d="M786 267L711 319L715 364Z" fill="#297ea6" stroke="#297ea6"></path><path d="M66 470L229 516L220 394Z" fill="#081a28" stroke="#081a28"></path><path d="M229 516L179 600L336 600Z" fill="#246688" stroke="#246688"></path><path d="M267 0L172 133L309 137Z" fill="#277297" stroke="#277297"></path><path d="M309 137L172 133L223 209Z" fill="#0c2435" stroke="#0c2435"></path><path d="M223 209L71 225L168 320Z" fill="#205a7a" stroke="#205a7a"></path><path d="M60 318L75 419L168 320Z" fill="#00101c" stroke="#00101c"></path><path d="M168 320L75 419L220 394Z" fill="#081a28" stroke="#081a28"></path><path d="M824 409L786 267L715 364Z" fill="#19435d" stroke="#19435d"></path><path d="M530 0L437 0L521 98Z" fill="#297ea6" stroke="#297ea6"></path><path d="M423 74L267 0L309 137Z" fill="#297ea6" stroke="#297ea6"></path><path d="M530 0L521 98L570 107Z" fill="#277297" stroke="#277297"></path><path d="M71 225L60 318L168 320Z" fill="#0c2435" stroke="#0c2435"></path><path d="M807 163L676 78L739 227Z" fill="#081a28" stroke="#081a28"></path><path d="M739 227L676 78L586 233Z" fill="#15384f" stroke="#15384f"></path><path d="M604 0L530 0L570 107Z" fill="#19435d" stroke="#19435d"></path><path d="M613 600L737 600L637 488Z" fill="#297ea6" stroke="#297ea6"></path><path d="M697 474L824 409L715 364Z" fill="#205a7a" stroke="#205a7a"></path><path d="M0 363L66 470L75 419Z" fill="#112e42" stroke="#112e42"></path><path d="M75 419L66 470L220 394Z" fill="#1d4e6b" stroke="#1d4e6b"></path><path d="M172 133L71 225L223 209Z" fill="#277297" stroke="#277297"></path><path d="M816 496L824 409L697 474Z" fill="#277297" stroke="#277297"></path><path d="M737 600L816 496L697 474Z" fill="#277297" stroke="#277297"></path><path d="M437 0L267 0L423 74Z" fill="#081a28" stroke="#081a28"></path><path d="M172 133L93 85L71 225Z" fill="#205a7a" stroke="#205a7a"></path><path d="M676 78L604 0L570 107Z" fill="#19435d" stroke="#19435d"></path><path d="M786 267L807 163L739 227Z" fill="#112e42" stroke="#112e42"></path><path d="M676 78L666 0L604 0Z" fill="#112e42" stroke="#112e42"></path><path d="M900 193L807 163L786 267Z" fill="#0c2435" stroke="#0c2435"></path><path d="M0 536L68 600L66 470Z" fill="#112e42" stroke="#112e42"></path><path d="M66 470L68 600L179 600Z" fill="#081a28" stroke="#081a28"></path><path d="M0 329L0 363L60 318Z" fill="#15384f" stroke="#15384f"></path><path d="M60 318L0 363L75 419Z" fill="#0c2435" stroke="#0c2435"></path><path d="M820 0L666 0L676 78Z" fill="#19435d" stroke="#19435d"></path><path d="M0 229L0 329L60 318Z" fill="#00101c" stroke="#00101c"></path><path d="M267 0L198 0L172 133Z" fill="#1d4e6b" stroke="#1d4e6b"></path><path d="M71 225L0 229L60 318Z" fill="#19435d" stroke="#19435d"></path><path d="M198 0L93 85L172 133Z" fill="#246688" stroke="#246688"></path><path d="M737 600L825 600L816 496Z" fill="#205a7a" stroke="#205a7a"></path><path d="M900 472L900 423L824 409Z" fill="#0c2435" stroke="#0c2435"></path><path d="M900 122L816 121L807 163Z" fill="#297ea6" stroke="#297ea6"></path><path d="M807 163L816 121L676 78Z" fill="#0c2435" stroke="#0c2435"></path><path d="M0 127L0 229L71 225Z" fill="#00101c" stroke="#00101c"></path><path d="M0 363L0 536L66 470Z" fill="#112e42" stroke="#112e42"></path><path d="M900 472L824 409L816 496Z" fill="#205a7a" stroke="#205a7a"></path><path d="M824 409L900 306L786 267Z" fill="#15384f" stroke="#15384f"></path><path d="M900 423L900 306L824 409Z" fill="#19435d" stroke="#19435d"></path><path d="M900 600L900 472L816 496Z" fill="#277297" stroke="#277297"></path><path d="M0 536L0 600L68 600Z" fill="#19435d" stroke="#19435d"></path><path d="M0 0L0 127L93 85Z" fill="#0c2435" stroke="#0c2435"></path><path d="M93 85L0 127L71 225Z" fill="#0c2435" stroke="#0c2435"></path><path d="M900 306L900 193L786 267Z" fill="#112e42" stroke="#112e42"></path><path d="M198 0L92 0L93 85Z" fill="#246688" stroke="#246688"></path><path d="M825 600L900 600L816 496Z" fill="#1d4e6b" stroke="#1d4e6b"></path><path d="M900 193L900 122L807 163Z" fill="#1d4e6b" stroke="#1d4e6b"></path><path d="M816 121L820 0L676 78Z" fill="#15384f" stroke="#15384f"></path><path d="M900 122L820 0L816 121Z" fill="#15384f" stroke="#15384f"></path><path d="M92 0L0 0L93 85Z" fill="#1d4e6b" stroke="#1d4e6b"></path><path d="M900 122L900 0L820 0Z" fill="#15384f" stroke="#15384f"></path></g></svg>