<svg id="visual" viewBox="0 0 900 600" width="900" height="600" xmlns="http://www.w3.org/2000/svg" xmlns:xlink="http://www.w3.org/1999/xlink" version="1.1"><path d="M0 151L13.7 148C27.3 145 54.7 139 82 154C109.3 169 136.7 205 163.8 239C191 273 218 305 245.2 309C272.3 313 299.7 289 327 270C354.3 251 381.7 237 409 236C436.3 235 463.7 247 491 232C518.3 217 545.7 175 573 158C600.3 141 627.7 149 654.8 172C682 195 709 233 736.2 235C763.3 237 790.7 203 818 194C845.3 185 872.7 201 886.3 209L900 217L900 0L886.3 0C872.7 0 845.3 0 818 0C790.7 0 763.3 0 736.2 0C709 0 682 0 654.8 0C627.7 0 600.3 0 573 0C545.7 0 518.3 0 491 0C463.7 0 436.3 0 409 0C381.7 0 354.3 0 327 0C299.7 0 272.3 0 245.2 0C218 0 191 0 163.8 0C136.7 0 109.3 0 82 0C54.7 0 27.3 0 13.7 0L0 0Z" fill="#6198ff"></path><path d="M0 463L13.7 451C27.3 439 54.7 415 82 397C109.3 379 136.7 367 163.8 378C191 389 218 423 245.2 425C272.3 427 299.7 397 327 378C354.3 359 381.7 351 409 363C436.3 375 463.7 407 491 413C518.3 419 545.7 399 573 379C600.3 359 627.7 339 654.8 349C682 359 709 399 736.2 405C763.3 411 790.7 383 818 361C845.3 339 872.7 323 886.3 315L900 307L900 215L886.3 207C872.7 199 845.3 183 818 192C790.7 201 763.3 235 736.2 233C709 231 682 193 654.8 170C627.7 147 600.3 139 573 156C545.7 173 518.3 215 491 230C463.7 245 436.3 233 409 234C381.7 235 354.3 249 327 268C299.7 287 272.3 311 245.2 307C218 303 191 271 163.8 237C136.7 203 109.3 167 82 152C54.7 137 27.3 143 13.7 146L0 149Z" fill="#2d77ff"></path><path d="M0 523L13.7 516C27.3 509 54.7 495 82 495C109.3 495 136.7 509 163.8 521C191 533 218 543 245.2 535C272.3 527 299.7 501 327 488C354.3 475 381.7 475 409 487C436.3 499 463.7 523 491 522C518.3 521 545.7 495 573 481C600.3 467 627.7 465 654.8 474C682 483 709 503 736.2 511C763.3 519 790.7 515 818 507C845.3 499 872.7 487 886.3 481L900 475L900 305L886.3 313C872.7 321 845.3 337 818 359C790.7 381 763.3 409 736.2 403C709 397 682 357 654.8 347C627.7 337 600.3 357 573 377C545.7 397 518.3 417 491 411C463.7 405 436.3 373 409 361C381.7 349 354.3 357 327 376C299.7 395 272.3 425 245.2 423C218 421 191 387 163.8 376C136.7 365 109.3 377 82 395C54.7 413 27.3 437 13.7 449L0 461Z" fill="#005de8"></path><path d="M0 601L13.7 601C27.3 601 54.7 601 82 601C109.3 601 136.7 601 163.8 601C191 601 218 601 245.2 601C272.3 601 299.7 601 327 601C354.3 601 381.7 601 409 601C436.3 601 463.7 601 491 601C518.3 601 545.7 601 573 601C600.3 601 627.7 601 654.8 601C682 601 709 601 736.2 601C763.3 601 790.7 601 818 601C845.3 601 872.7 601 886.3 601L900 601L900 473L886.3 479C872.7 485 845.3 497 818 505C790.7 513 763.3 517 736.2 509C709 501 682 481 654.8 472C627.7 463 600.3 465 573 479C545.7 493 518.3 519 491 520C463.7 521 436.3 497 409 485C381.7 473 354.3 473 327 486C299.7 499 272.3 525 245.2 533C218 541 191 531 163.8 519C136.7 507 109.3 493 82 493C54.7 493 27.3 507 13.7 514L0 521Z" fill="#004cbb"></path></svg>